<svg width="90" height="28" viewBox="0 0 90 28" fill="none" xmlns="http://www.w3.org/2000/svg">
<g id="axess.svg" clip-path="url(#clip0_2_372)">
<g id="Group">
<g id="Group_2">
<g id="Group_3">
<path id="Vector" d="M22.6546 0.0498047L31.343 12.6037L40.0314 0.0498047H22.6546Z" fill="#FEC10E"/>
<path id="Vector_2" d="M11.6543 6.75488L0.972473 25.9924H6.24985L8.12522 22.1426H17.3097L19.2638 25.9924H24.5097L13.7333 6.75488H11.6543ZM12.6938 12.5576L15.908 18.7474H9.47972L12.6938 12.5576Z" fill="#231F20"/>
<path id="Vector_3" d="M36.2401 25.9925L31.2811 19.7173L27.0691 25.9925H21.7377L28.9107 16.1375L22.1067 6.7168H27.2671L31.343 12.6039L35.4189 6.7168H40.5477L33.6054 16.1375L41.6795 25.9925H36.2401Z" fill="#231F20"/>
<g id="Group_4">
<path id="Vector_4" d="M59.2316 17.7328H45.4695C45.5516 19.3134 46.0995 20.5273 47.112 21.3744C48.0727 22.1912 49.3597 22.5984 50.9707 22.5984C53.016 22.5984 54.5764 22.0618 55.6507 20.9874L57.3866 24.4277C55.806 25.7079 53.4446 26.348 50.3047 26.348C47.2976 26.348 44.9475 25.4649 43.2532 23.6987C41.5916 21.9628 40.7591 19.5879 40.7591 16.5707C40.7591 13.7098 41.6377 11.3135 43.3939 9.38191C45.2017 7.36479 47.517 6.35791 50.3362 6.35791C53.043 6.35791 55.2547 7.15441 56.9692 8.74404C58.7254 10.3865 59.604 12.551 59.604 15.2375C59.604 15.7843 59.4802 16.6168 59.2316 17.7317M45.6259 14.3544H55.0939C54.7845 11.5352 53.2241 10.1244 50.4139 10.1244C47.841 10.1244 46.2457 11.5352 45.6259 14.3544ZM60.4624 24.7528L62.0588 21.1742C63.4121 22.2373 64.9309 22.7694 66.615 22.7694C68.37 22.7694 69.2486 22.145 69.2486 20.894C69.2486 20.0267 68.7941 19.283 67.8851 18.6632C67.4722 18.374 66.6353 17.9657 65.3752 17.4392C62.0475 16.0644 60.3848 14.1384 60.3848 11.6589C60.3848 9.88141 61.1025 8.52354 62.5391 7.58304C63.7688 6.76741 65.3122 6.35904 67.1707 6.35904C69.1755 6.35904 71.061 6.80904 72.8272 7.70791L71.5267 11.21C70.5446 10.3618 69.1755 9.93879 67.4194 9.93879C65.8489 9.93879 65.0636 10.5643 65.0636 11.8142C65.0636 12.4757 65.6115 13.1 66.7061 13.6884C67.0481 13.8853 67.8637 14.2363 69.1552 14.7425C72.3367 15.9935 73.9275 17.9443 73.9275 20.6004C73.9275 22.5523 73.1535 24.0395 71.6032 25.0622C70.2814 25.9205 68.5871 26.348 66.5205 26.348C65.2493 26.348 64.2007 26.2355 63.3739 26.0072C62.6201 25.8013 61.6492 25.3839 60.4601 24.7528M74.7724 24.7528L76.3688 21.1742C77.7221 22.2373 79.2409 22.7694 80.925 22.7694C82.68 22.7694 83.5586 22.145 83.5586 20.894C83.5586 20.0267 83.1041 19.283 82.1951 18.6632C81.7822 18.374 80.9453 17.9657 79.6853 17.4392C76.3575 16.0644 74.6947 14.1384 74.6947 11.6589C74.6947 9.88141 75.4125 8.52354 76.8491 7.58304C78.0788 6.76741 79.6223 6.35904 81.4808 6.35904C83.4855 6.35904 85.371 6.80904 87.1373 7.70791L85.8356 11.21C84.8546 10.3618 83.4855 9.93879 81.7294 9.93879C80.1589 9.93879 79.3736 10.5643 79.3736 11.8142C79.3736 12.4757 79.9215 13.1 81.0161 13.6884C81.357 13.8853 82.1726 14.2363 83.4653 14.7425C86.6468 15.9935 88.2375 17.9443 88.2375 20.6004C88.2375 22.5523 87.4624 24.0395 85.9132 25.0622C84.5914 25.9205 82.8971 26.348 80.8305 26.348C79.5593 26.348 78.5108 26.2355 77.6839 26.0072C76.9301 25.8013 75.9593 25.3839 74.7701 24.7528" fill="#231F20"/>
</g>
</g>
</g>
</g>
</g>
<defs>
<clipPath id="clip0_2_372">
<rect width="88.875" height="27" fill="white" transform="translate(0.972473 0.0498047)"/>
</clipPath>
</defs>
</svg>
