<svg width="80" height="82" viewBox="0 0 80 82" fill="none" xmlns="http://www.w3.org/2000/svg">
<g id="badge-online-ring.svg">
<g id="Group">
<g id="Group_2">
<g id="Group_3">
<path id="Vector" fill-rule="evenodd" clip-rule="evenodd" d="M33.826 7.19675L34.217 7.71775L34.903 7.05475L34.888 8.00175L35.525 7.92775L35.292 7.01075L36.112 7.49675L36.373 6.89975L35.461 6.63575L36.288 6.16975L35.896 5.64875L35.21 6.31075L35.226 5.36475L34.589 5.43975L34.822 6.35675L34.002 5.86975L33.741 6.46675L34.653 6.72975L33.826 7.19675ZM32.437 8.40775L32.119 7.51675L32.981 7.92375L33.185 7.30475L32.252 7.12875L33.031 6.58675L32.593 6.10475L31.971 6.82775L31.898 5.88475L31.271 6.01875L31.59 6.90975L30.727 6.50275L30.524 7.12175L31.457 7.29875L30.677 7.84075L31.116 8.32375L31.737 7.59875L31.81 8.54275L32.437 8.40775ZM27.58 8.78275L28.062 9.22075L28.611 8.44075L28.774 9.37275L29.385 9.18075L28.984 8.32275L29.881 8.64775L30.025 8.01175L29.079 7.92475L29.804 7.31075L29.322 6.87275L28.773 7.65275L28.61 6.71975L27.999 6.91275L28.4 7.76975L27.502 7.44575L27.359 8.08275L28.304 8.16875L27.58 8.78275Z" fill="#C2A364"/>
<g id="Group_4">
<path id="Vector_2" fill-rule="evenodd" clip-rule="evenodd" d="M19.79 9.21177C20.237 10.0548 20.976 10.1128 22.092 9.84877C23.042 9.61977 23.304 9.61477 23.472 9.93177L23.479 9.94477C23.603 10.1808 23.489 10.4808 23.081 10.6968C22.674 10.9128 22.157 10.9568 21.571 10.8868L21.444 11.9808C22.144 12.1148 22.861 12.0168 23.566 11.6428C24.553 11.1188 24.95 10.1658 24.484 9.28877L24.477 9.27477C23.968 8.31477 23.197 8.37877 22.092 8.64577C21.174 8.86777 20.935 8.81677 20.792 8.54777L20.785 8.53477C20.635 8.25177 20.805 7.93977 21.24 7.70877C21.793 7.41577 22.37 7.40277 22.995 7.53077L23.225 6.44377C22.37 6.23377 21.495 6.36977 20.764 6.75877C19.721 7.31077 19.274 8.23877 19.784 9.19877L19.79 9.21177ZM16.653 12.2318L17.82 11.3618L18.298 13.2218L16.653 12.2318ZM19.596 14.0598L18.182 8.23377L17.197 8.96777L17.53 10.2518L15.672 11.6358L14.537 10.9498L13.527 11.7028L18.705 14.7228L19.596 14.0598ZM11.829 14.9518L12.471 14.2788L14.861 16.5528L14.221 17.2278C13.541 17.9418 12.59 17.9538 11.887 17.2848L11.877 17.2748C11.174 16.6068 11.15 15.6658 11.829 14.9528V14.9518ZM11.031 18.2088C12.147 19.2698 13.821 19.2238 15.008 17.9768L16.48 16.4308L12.513 12.6558L11.042 14.2038C9.856 15.4498 9.903 17.1358 11.019 18.1968L11.031 18.2088ZM8.288 19.1618L9.235 19.8138L7.771 21.9398L8.653 22.5478L10.117 20.4218L11.032 21.0518L9.367 23.4678L10.25 24.0758L12.593 20.6748L8.084 17.5688L5.719 21.0018L6.602 21.6098L8.288 19.1618ZM4.668 26.7088C4.503 26.1518 4.444 25.6988 4.716 25.1348C5.124 24.2908 6.11 24.0468 6.954 24.4548L6.968 24.4608C7.813 24.8688 8.213 25.8008 7.812 26.6308C7.575 27.1238 7.176 27.4088 6.649 27.6218L7.111 28.6958C7.781 28.4558 8.36 28.0498 8.808 27.1208C9.539 25.6078 8.902 23.9978 7.501 23.3208L7.487 23.3148C6.073 22.6318 4.434 23.1688 3.734 24.6178C3.275 25.5678 3.341 26.2938 3.638 27.0618L4.668 26.7088ZM3.031 29.5148L4.13 29.8498L3.378 32.3178L4.403 32.6298L5.155 30.1618L6.217 30.4848L5.362 33.2898L6.387 33.6028L7.59 29.6538L2.355 28.0588L1.141 32.0448L2.166 32.3578L3.031 29.5148ZM5.57 40.1628L2.208 39.9268L5.75 37.6058L5.828 36.4968L0.367001 36.1128L0.284001 37.2988L3.755 37.5418L0.098001 39.9438L0.026001 40.9638L5.486 41.3498L5.57 40.1628ZM1.245 43.8838L2.39 43.7858L2.61 46.3558L3.677 46.2648L3.457 43.6948L4.563 43.5998L4.813 46.5198L5.88 46.4288L5.527 42.3168L0.075001 42.7838L0.432001 46.9348L1.499 46.8428L1.245 43.8838ZM6.812 50.4938L4.711 51.0128L4.178 48.8578L6.279 48.3398L5.992 47.1718L0.681001 48.4828L0.970001 49.6508L3.101 49.1248L3.634 51.2788L1.502 51.8048L1.79 52.9738L7.1 51.6628L6.812 50.4938ZM7.53 52.6858L2.412 54.6238L2.838 55.7488L7.956 53.8108L7.53 52.6858ZM7.937 52.5478L8.352 53.6448L9.281 53.2928L8.866 52.1968L7.937 52.5478ZM8.206 58.6768L8.192 58.6838C7.782 58.8958 7.35 58.7408 7.08 58.2208L6.518 57.1378L7.912 56.4138L8.464 57.4758C8.734 57.9958 8.664 58.4388 8.206 58.6768ZM9.718 58.7368C9.871 58.2528 9.796 57.6828 9.476 57.0658L8.323 54.8448L3.464 57.3648L4.019 58.4348L5.574 57.6278L6.009 58.4678L4.995 60.3158L5.643 61.5658L6.763 59.4778C7.313 59.9778 8.025 60.1438 8.809 59.7378L8.823 59.7308C9.281 59.4928 9.588 59.1488 9.718 58.7368ZM12.791 66.3818L12.78 66.3918C12.071 67.0058 11.052 66.9998 10.418 66.2668C9.784 65.5348 9.924 64.5038 10.632 63.8898L10.644 63.8798C11.352 63.2658 12.371 63.2718 13.005 64.0048C13.64 64.7368 13.5 65.7678 12.791 66.3818ZM13.627 67.3218C14.802 66.3028 14.96 64.5648 13.854 63.2888C12.749 62.0138 10.984 61.9208 9.809 62.9398L9.797 62.9498C8.622 63.9678 8.464 65.7068 9.569 66.9828C10.675 68.2568 12.44 68.3508 13.615 67.3328L13.627 67.3218ZM19.06 68.2848L16.947 70.9058L17.065 66.6758L16.201 65.9798L12.77 70.2378L13.694 70.9838L15.875 68.2758L15.756 72.6458L16.553 73.2868L19.985 69.0298L19.06 68.2848ZM21.851 70.1368L20.809 69.5328L18.062 74.2668L21.464 76.2408L22.013 75.2938L19.653 73.9238L21.851 70.1368ZM24.894 71.7678L22.657 76.7608L23.754 77.2528L25.992 72.2598L24.894 71.7678ZM29.478 77.0478L28.021 73.0758L26.961 72.7488L25.35 77.9758L26.484 78.3258L27.509 75.0028L29.015 79.1058L29.994 79.4078L31.605 74.1808L30.471 73.8308L29.478 77.0478ZM31.803 79.7648L35.928 80.3368L36.075 79.2768L33.134 78.8688L33.292 77.7308L35.846 78.0848L35.993 77.0248L33.439 76.6708L33.591 75.5718L36.494 75.9728L36.641 74.9128L32.554 74.3468L31.803 79.7648ZM44.263 75.5038L43.875 74.9808L43.185 75.6378L43.207 74.6918L42.57 74.7618L42.797 75.6798L41.981 75.1878L41.716 75.7818L42.625 76.0518L41.795 76.5118L42.183 77.0358L42.873 76.3788L42.85 77.3238L43.487 77.2538L43.261 76.3358L44.077 76.8278L44.342 76.2338L43.432 75.9648L44.263 75.5038ZM47.454 74.8748L47.019 74.3898L46.393 75.1098L46.326 74.1658L45.698 74.2938L46.01 75.1878L45.151 74.7738L44.943 75.3918L45.874 75.5758L45.09 76.1108L45.526 76.5958L46.151 75.8768L46.217 76.8208L46.846 76.6918L46.534 75.7988L47.394 76.2128L47.602 75.5948L46.671 75.4118L47.454 74.8748ZM50.55 73.9558L50.071 73.5138L49.515 74.2888L49.36 73.3548L48.746 73.5428L49.141 74.4028L48.246 74.0718L48.097 74.7068L49.042 74.8018L48.312 75.4098L48.791 75.8518L49.347 75.0768L49.502 76.0108L50.115 75.8238L49.721 74.9618L50.615 75.2938L50.765 74.6588L49.82 74.5638L50.55 73.9558ZM58.338 73.5818C57.898 72.7368 57.159 72.6728 56.041 72.9288C55.091 73.1508 54.829 73.1558 54.662 72.8378L54.655 72.8238C54.533 72.5888 54.65 72.2888 55.059 72.0758C55.467 71.8628 55.984 71.8228 56.569 71.8958L56.704 70.8028C56.006 70.6648 55.288 70.7578 54.58 71.1258C53.59 71.6438 53.187 72.5928 53.645 73.4738L53.652 73.4878C54.155 74.4508 54.927 74.3918 56.034 74.1318C56.954 73.9168 57.192 73.9688 57.332 74.2398L57.34 74.2528C57.488 74.5368 57.315 74.8478 56.878 75.0748C56.324 75.3648 55.748 75.3748 55.123 75.2418L54.886 76.3268C55.739 76.5418 56.614 76.4118 57.349 76.0288C58.396 75.4828 58.849 74.5588 58.346 73.5968L58.338 73.5818ZM61.497 70.5888L60.325 71.4508L59.861 69.5908L61.497 70.5888ZM58.571 68.7448L59.944 74.5718L60.932 73.8458L60.609 72.5598L62.473 71.1918L63.603 71.8838L64.617 71.1388L59.465 68.0878L58.571 68.7448ZM66.333 67.9118L65.687 68.5788L63.317 66.2888L63.962 65.6198C64.646 64.9128 65.597 64.9068 66.293 65.5808L66.304 65.5908C67 66.2638 67.017 67.2038 66.333 67.9118ZM67.155 64.6658C66.048 63.5958 64.375 63.6298 63.181 64.8658L61.7 66.3998L65.633 70.1998L67.113 68.6658C68.307 67.4298 68.273 65.7458 67.166 64.6758L67.155 64.6658ZM69.906 63.7268L68.964 63.0668L70.444 60.9528L69.567 60.3388L68.087 62.4528L67.177 61.8158L68.859 59.4138L67.982 58.7988L65.614 62.1808L70.098 65.3208L72.488 61.9068L71.61 61.2928L69.906 63.7268ZM73.578 56.2068C73.739 56.7648 73.795 57.2188 73.519 57.7808C73.106 58.6208 72.119 58.8588 71.276 58.4448L71.263 58.4378C70.421 58.0238 70.027 57.0908 70.433 56.2628C70.675 55.7728 71.075 55.4898 71.605 55.2798L71.15 54.2038C70.477 54.4388 69.896 54.8418 69.441 55.7668C68.701 57.2748 69.326 58.8888 70.721 59.5748L70.736 59.5818C72.146 60.2738 73.788 59.7498 74.498 58.3048C74.964 57.3578 74.903 56.6318 74.61 55.8618L73.578 56.2068ZM75.24 53.4188L74.144 53.0758L74.916 50.6158L73.894 50.2958L73.124 52.7548L72.065 52.4238L72.941 49.6278L71.92 49.3078L70.686 53.2438L75.904 54.8798L77.15 50.9068L76.128 50.5868L75.24 53.4188ZM78.335 41.9768L72.883 41.5508L72.791 42.7348L76.148 42.9968L72.592 45.2888L72.506 46.3948L77.957 46.8208L78.049 45.6368L74.583 45.3658L78.255 42.9968L78.335 41.9768ZM77.133 39.0618L75.988 39.1528L75.783 36.5828L74.717 36.6678L74.921 39.2378L73.815 39.3258L73.583 36.4058L72.516 36.4898L72.844 40.6028L78.295 40.1688L77.964 36.0168L76.898 36.1018L77.133 39.0618ZM71.619 32.3978L73.724 31.8948L74.239 34.0528L72.134 34.5558L72.414 35.7248L77.732 34.4568L77.452 33.2868L75.317 33.7958L74.803 31.6378L76.938 31.1278L76.659 29.9588L71.34 31.2278L71.619 32.3978ZM70.915 30.2168L76.05 28.3138L75.631 27.1838L70.496 29.0878L70.915 30.2168ZM69.167 29.5968L69.574 30.6968L70.506 30.3518L70.098 29.2518L69.167 29.5968ZM70.286 24.1988L70.3 24.1918C70.71 23.9828 71.142 24.1408 71.408 24.6628L71.96 25.7498L70.56 26.4628L70.018 25.3958C69.752 24.8728 69.827 24.4328 70.286 24.1988ZM69.678 23.1398C69.218 23.3738 68.91 23.7158 68.776 24.1248C68.618 24.6078 68.688 25.1778 69.003 25.7978L70.138 28.0268L75.013 25.5478L74.468 24.4748L72.908 25.2678L72.478 24.4258L73.508 22.5858L72.87 21.3328L71.735 23.4088C71.19 22.9068 70.479 22.7328 69.691 23.1338L69.678 23.1398ZM65.754 16.4778L65.766 16.4678C66.478 15.8578 67.497 15.8718 68.127 16.6078C68.757 17.3438 68.61 18.3758 67.897 18.9838L67.886 18.9948C67.173 19.6048 66.155 19.5918 65.524 18.8548C64.894 18.1188 65.041 17.0878 65.754 16.4778ZM64.924 15.5318C63.742 16.5428 63.573 18.2818 64.67 19.5638C65.768 20.8478 67.534 20.9528 68.716 19.9408L68.728 19.9308C69.91 18.9198 70.078 17.1808 68.981 15.8978C67.884 14.6148 66.118 14.5098 64.936 15.5218L64.924 15.5318ZM59.502 14.5238L61.635 11.9178L61.486 16.1478L62.344 16.8508L65.809 12.6178L64.89 11.8658L62.687 14.5558L62.84 10.1868L62.048 9.53877L58.583 13.7718L59.502 14.5238ZM56.719 12.6398L57.755 13.2518L60.535 8.54277L57.152 6.54477L56.596 7.48677L58.943 8.87277L56.719 12.6398ZM55.974 6.02177L54.88 5.51977L52.6 10.4958L53.695 10.9978L55.974 6.02177ZM52.132 4.42177L51.086 7.73777L49.605 3.62377L48.628 3.31677L46.984 8.53477L48.116 8.89277L49.129 5.67877L50.561 9.66277L51.62 9.99577L53.264 4.77777L52.132 4.42177ZM46.847 2.94577L42.727 2.34277L42.572 3.40077L45.509 3.83177L45.343 4.96777L42.792 4.59377L42.637 5.65277L45.187 6.02677L45.026 7.12477L42.128 6.69977L41.973 7.75777L46.053 8.35677L46.847 2.94577Z" fill="#C2A364"/>
</g>
</g>
</g>
</g>
</g>
</svg>
