<svg width="14" height="14" viewBox="0 0 14 14" fill="none" xmlns="http://www.w3.org/2000/svg">
<g id="ico-track.svg" clip-path="url(#clip0_2_13)">
<g id="Group">
<g id="Group_2">
<g id="Group_3">
<path id="Vector" d="M6.18303 0.639999L0.0210266 3.9004V10.3137L6.18303 13.575L12.345 10.3146V3.9004L6.18303 0.639999ZM0.889427 9.86133V4.35453L6.18303 1.55433L11.4758 4.35453V9.86047L6.18216 12.6607L0.889427 9.86133Z" fill="#363636"/>
<path id="Vector_2" d="M0.23584 4.46893L6.18291 7.61493L12.1291 4.46893L11.6914 3.786L6.18291 6.70146L0.674373 3.786L0.23584 4.46893Z" fill="#363636"/>
<path id="Vector_3" d="M8.9077 5.89633L3.1799 2.8656L3.61757 2.18353L9.34537 5.21427L8.9077 5.89633ZM5.7487 13.1174H6.6171V7.1582H5.7487V13.1174Z" fill="#363636"/>
</g>
</g>
</g>
</g>
<defs>
<clipPath id="clip0_2_13">
<rect width="13" height="13" fill="white" transform="translate(0.0200195 0.639999)"/>
</clipPath>
</defs>
</svg>
