<svg width="57" height="41" viewBox="0 0 57 41" fill="none" xmlns="http://www.w3.org/2000/svg">
<g id="ico-delivery.svg" clip-path="url(#clip0_2_319)">
<g id="Group">
<g id="Group_2">
<g id="Group_3">
<g id="Group_4">
<g id="Group_5">
<path id="Vector" fill-rule="evenodd" clip-rule="evenodd" d="M32.7595 0.571289C34.4317 0.571289 35.7926 2.10787 35.7926 3.99568V7.07568H46.4931C47.5614 7.07568 48.5224 7.6669 49.0005 8.61909L54.7302 20.0171C55.0522 20.6591 55.2278 21.3771 55.2375 22.0952L55.3361 30.2162C55.3458 30.9674 55.059 31.6757 54.5292 32.2103C53.9995 32.744 53.2931 33.0396 52.539 33.0396H49.2083L49.2102 33.0923C49.2102 36.663 46.2961 39.5703 42.7136 39.5703C39.1331 39.5703 36.219 36.663 36.219 33.0923V33.0386H20.8726V33.0923C20.8726 36.663 17.9595 39.5703 14.378 39.5703C10.7965 39.5703 7.8824 36.663 7.8824 33.0923L7.88338 33.0386H3.52923C1.85606 33.0396 0.495087 31.503 0.495087 29.6152C0.495087 29.1176 0.899965 28.7128 1.40045 28.7128C1.89996 28.7128 2.30484 29.1167 2.30484 29.6152C2.30484 30.4932 2.86484 31.2347 3.52826 31.2347H8.15557C8.95948 28.5654 11.4434 26.6152 14.378 26.6152C17.3117 26.6152 19.7966 28.5664 20.5995 31.2347H33.9819V3.99568C33.9819 3.11763 33.4219 2.37617 32.7595 2.37617H0.495087V0.571289H32.7595ZM42.7136 28.4201C42.5692 28.4201 42.4258 28.4289 42.2844 28.4415C42.2414 28.4454 42.2005 28.4513 42.1575 28.4562C42.0541 28.4679 41.9517 28.4835 41.8492 28.503L41.7273 28.5264C41.5926 28.5557 41.46 28.5879 41.3302 28.6279L41.2814 28.6454C41.1673 28.6815 41.0551 28.7235 40.9458 28.7674L40.8161 28.824C40.7322 28.862 40.6492 28.902 40.5673 28.944C40.5253 28.9654 40.4824 28.9859 40.4405 29.0093C40.3302 29.0718 40.22 29.1362 40.1146 29.2074L40.0141 29.2796C39.94 29.3323 39.8668 29.3869 39.7956 29.4435C39.7497 29.4796 39.7058 29.5167 39.6619 29.5547C39.6034 29.6045 39.5478 29.6552 39.4931 29.7079C39.4502 29.7488 39.4063 29.7889 39.3653 29.8308C39.2892 29.9088 39.2161 29.9889 39.1448 30.0728C39.099 30.1264 39.0561 30.182 39.0122 30.2386C38.9692 30.2942 38.9263 30.3498 38.8853 30.4074C38.8463 30.462 38.8092 30.5186 38.7731 30.5752C38.738 30.6298 38.7048 30.6864 38.6707 30.743C38.6366 30.8015 38.6024 30.8581 38.5702 30.9186C38.5156 31.021 38.4648 31.1254 38.418 31.2318C38.1692 31.8025 38.0287 32.4318 38.0287 33.0923C38.0287 35.6679 40.1302 37.7645 42.7136 37.7645C45.298 37.7645 47.3995 35.6679 47.3995 33.0913C47.3995 32.4289 47.258 31.7996 47.0083 31.2279C46.9614 31.1225 46.9117 31.0201 46.858 30.9186C46.8268 30.8581 46.7917 30.8015 46.7575 30.743C46.7244 30.6854 46.6902 30.6298 46.6551 30.5752C46.619 30.5186 46.5809 30.462 46.5419 30.4064C46.5019 30.3498 46.459 30.2942 46.4161 30.2386C46.3722 30.182 46.3283 30.1254 46.2824 30.0708C46.2122 29.9888 46.139 29.9079 46.0629 29.8308C46.0219 29.7889 45.978 29.7488 45.9361 29.7079C45.8805 29.6552 45.8239 29.6045 45.7663 29.5547C45.7224 29.5167 45.6785 29.4796 45.6326 29.4425C45.5614 29.3869 45.4883 29.3323 45.4141 29.2806C45.38 29.2562 45.3478 29.2308 45.3136 29.2074C45.2083 29.1371 45.099 29.0708 44.9868 29.0093C44.9458 28.9859 44.9029 28.9654 44.8609 28.944C44.779 28.901 44.697 28.862 44.6122 28.824C44.5692 28.8045 44.5263 28.7849 44.4824 28.7674C44.3731 28.7225 44.2609 28.6815 44.1478 28.6454C44.1312 28.6406 44.1146 28.6337 44.099 28.6279C43.9683 28.5879 43.8356 28.5547 43.7009 28.5264C43.6609 28.5167 43.62 28.5108 43.579 28.503C43.4766 28.4835 43.3741 28.4679 43.2697 28.4562L43.1439 28.4415C43.0024 28.4289 42.859 28.4201 42.7146 28.4201H42.7136ZM14.378 28.4201C14.2326 28.4201 14.0892 28.4289 13.9478 28.4415L13.8219 28.4562C13.7185 28.4679 13.6151 28.4835 13.5126 28.503L13.3907 28.5264C13.257 28.5557 13.1234 28.5879 12.9936 28.6279L12.9448 28.6454C12.8307 28.6815 12.7195 28.7235 12.6102 28.7674L12.4795 28.824C12.3956 28.862 12.3126 28.902 12.2307 28.944C12.1887 28.9654 12.1468 28.9859 12.1048 29.0093C11.9936 29.0718 11.8844 29.1362 11.779 29.2074C11.7439 29.2308 11.7107 29.2562 11.6775 29.2806C11.6034 29.3323 11.5312 29.3869 11.46 29.4425C11.4141 29.4796 11.3692 29.5167 11.3253 29.5547C11.2678 29.6045 11.2122 29.6552 11.1566 29.7079C11.1136 29.7488 11.0707 29.7889 11.0297 29.8308C10.9526 29.9088 10.8805 29.9888 10.8102 30.0708C10.7634 30.1254 10.7195 30.182 10.6756 30.2386C10.6326 30.2942 10.5907 30.3498 10.5497 30.4064C10.5107 30.462 10.4736 30.5186 10.4366 30.5752C10.4014 30.6298 10.3683 30.6854 10.3351 30.742C10.3009 30.8006 10.2658 30.8591 10.2336 30.9186C10.18 31.0201 10.1302 31.1235 10.0844 31.2279C9.83362 31.7996 9.69216 32.4289 9.69216 33.0913C9.69216 35.6679 11.7946 37.7645 14.378 37.7645C16.9614 37.7645 19.0629 35.6679 19.0629 33.0913C19.0629 32.4289 18.9224 31.7996 18.6726 31.2279C18.6258 31.1225 18.5751 31.0201 18.5224 30.9186C18.4902 30.8581 18.4551 30.8015 18.4209 30.743C18.3878 30.6854 18.3546 30.6298 18.3195 30.5752C18.2824 30.5186 18.2453 30.462 18.2063 30.4064C18.1653 30.3498 18.1234 30.2942 18.0795 30.2386C18.0366 30.182 17.9917 30.1254 17.9458 30.0708C17.8756 29.9888 17.8024 29.9079 17.7273 29.8308C17.6853 29.7889 17.6424 29.7488 17.5995 29.7079C17.5439 29.6552 17.4883 29.6045 17.4307 29.5547C17.3858 29.5167 17.3429 29.4796 17.2961 29.4425C17.2258 29.3869 17.1526 29.3323 17.0785 29.2806C17.0444 29.2562 17.0122 29.2308 16.977 29.2074C16.8717 29.1371 16.7624 29.0708 16.6502 29.0093C16.6092 28.9859 16.5673 28.9654 16.5253 28.944C16.4434 28.901 16.3595 28.862 16.2766 28.824C16.2326 28.8045 16.1897 28.7849 16.1458 28.7674C16.0366 28.7225 15.9253 28.6815 15.8122 28.6454C15.7946 28.6406 15.779 28.6337 15.7624 28.6279C15.6317 28.5879 15.499 28.5547 15.3644 28.5264C15.3253 28.5167 15.2834 28.5108 15.2424 28.503C15.1409 28.4835 15.0375 28.4679 14.9331 28.4562C14.8922 28.4503 14.8502 28.4454 14.8083 28.4415C14.6658 28.4289 14.5234 28.4201 14.378 28.4201ZM40.9039 8.88056H35.7926V31.2337H36.4922C37.2951 28.5645 39.78 26.6142 42.7136 26.6142C45.6483 26.6142 48.1331 28.5654 48.9361 31.2337H52.54C52.8053 31.2337 53.0551 31.1293 53.2414 30.941C53.4278 30.7528 53.5292 30.503 53.5263 30.2386L53.4268 22.1167C53.4258 22.0289 53.417 21.941 53.4083 21.8532H40.9048V8.88153L40.9039 8.88056ZM12.1009 19.9732C12.6005 19.9732 13.0063 20.3771 13.0063 20.8757C13.0063 21.3732 12.6005 21.7781 12.1009 21.7781H0.495087V19.9732H12.1009ZM46.4931 8.88056H42.7136V20.0484H52.7214L47.3819 9.42787C47.2122 9.09031 46.8707 8.88056 46.4931 8.88056ZM15.4258 15.0952C15.9263 15.0952 16.3312 15.4991 16.3312 15.9976C16.3312 16.4952 15.9263 16.9001 15.4258 16.9001H0.495087V15.0952H15.4258ZM19.86 10.2171C20.3595 10.2171 20.7653 10.621 20.7653 11.1196C20.7653 11.6171 20.3595 12.022 19.86 12.022H0.495087V10.2171H19.86ZM25.4014 5.33909C25.9019 5.33909 26.3068 5.743 26.3068 6.24153C26.3068 6.73909 25.9019 7.14397 25.4024 7.14397H0.495087V5.33909H25.4014Z" fill="#D1C5AC"/>
</g>
</g>
</g>
</g>
</g>
</g>
<defs>
<clipPath id="clip0_2_319">
<rect width="55.6098" height="40" fill="white" transform="translate(0.495087 0.549805)"/>
</clipPath>
</defs>
</svg>
