<svg width="45" height="51" viewBox="0 0 45 51" fill="none" xmlns="http://www.w3.org/2000/svg">
<g id="ico-return.svg" clip-path="url(#clip0_2_347)">
<g id="Group">
<g id="Group_2">
<g id="Group_3">
<g id="Group_4">
<g id="Group_5">
<g id="Group_6">
<g id="Mask group">
<mask id="mask0_2_347" style="mask-type:luminance" maskUnits="userSpaceOnUse" x="0" y="20" width="33" height="31">
<g id="Group_7">
<path id="Vector" d="M0.718353 20.3042H32.4699V50.1322H0.718353V20.3042Z" fill="white"/>
</g>
</mask>
<g mask="url(#mask0_2_347)">
<path id="Vector_2" fill-rule="evenodd" clip-rule="evenodd" d="M17.1752 48.5671V32.8906L23.3494 30.2239L25.5365 29.3164L29.9024 27.6118L31.3077 27.0285V41.9467L17.1752 48.5671ZM1.88047 27.0277L16.013 32.8959V48.5671L1.88047 41.9459V27.0277ZM9.08426 24.1406L10.1487 23.78L13.2108 25.133C13.2865 25.1664 13.3661 25.1823 13.4434 25.1823C13.6676 25.1823 13.8805 25.0512 13.9759 24.8308C14.1047 24.5345 13.9714 24.1891 13.6774 24.0588L11.7896 23.2255L16.8593 21.5095L30.2517 26.1989L29.4714 26.5232L25.1115 28.2255L25.1002 28.23L24.3047 28.5611L20.6131 27.0209C20.3168 26.8974 19.9767 27.0391 19.854 27.3376C19.7312 27.6368 19.8721 27.98 20.1691 28.1035L22.7827 29.1944L16.5903 31.8686L2.96153 26.2088L9.08426 24.1406ZM32.4706 26.1361C32.463 25.8929 32.3077 25.6792 32.0797 25.5989L17.0517 20.3376C16.9305 20.2951 16.7979 20.2944 16.6759 20.3353L11.0267 22.2489L1.11457 25.5967C0.88502 25.6747 0.726687 25.8883 0.719111 26.133V26.1527H0.718353V42.6944L16.5941 50.1323L32.4699 42.6944V26.1527L32.4706 26.1361Z" fill="#D3C7AE"/>
</g>
</g>
</g>
<g id="Group_8">
<g id="Mask group_2">
<mask id="mask1_2_347" style="mask-type:luminance" maskUnits="userSpaceOnUse" x="16" y="0" width="28" height="37">
<g id="Group_9">
<path id="Vector_3" d="M16.1547 0.570312H43.9714V36.0991H16.1547V0.570312Z" fill="white"/>
</g>
</mask>
<g mask="url(#mask1_2_347)">
<path id="Vector_4" fill-rule="evenodd" clip-rule="evenodd" d="M37.1547 34.9385C41.5502 26.2226 38.8123 20.6824 35.6782 17.5461C33.1949 15.0597 29.4918 14.4544 26.8767 14.4158V21.1627L25.9911 20.2771L24.4078 18.693L21.5964 15.8779L17.3138 11.5915L26.8767 1.73016V8.27562C30.9843 8.3438 35.0706 9.93168 38.1971 13.062C44.3615 19.2317 44.6767 29.2643 37.1547 34.9385ZM39.0168 12.2415C36.0593 9.28092 32.1956 7.5044 28.0358 7.17031V1.73016C28.0358 1.25743 27.7494 0.832434 27.3123 0.655161C27.1714 0.597585 27.0237 0.570312 26.8774 0.570312C26.5699 0.570312 26.2684 0.692282 26.0456 0.921828L16.482 10.7847C16.0411 11.2393 16.0464 11.9643 16.4941 12.4127L20.7767 16.6991L23.5888 19.5135L25.1721 21.0983L26.057 21.9847C26.2782 22.2059 26.5744 22.3241 26.8767 22.3241C27.0259 22.3241 27.1759 22.2953 27.3191 22.2362C27.7524 22.0559 28.035 21.6332 28.035 21.1643V15.6317C31.8752 15.9423 33.9365 17.4438 34.8593 18.3665C36.5987 20.1089 37.6896 22.1249 38.1002 24.3605C38.6479 27.3415 37.982 30.7249 36.1199 34.4165C35.8774 34.8983 35.9987 35.4839 36.4115 35.8294C36.6259 36.0089 36.8903 36.0999 37.1547 36.0999C37.3994 36.0999 37.6449 36.0218 37.8517 35.8658C41.4721 33.1347 43.632 29.2468 43.935 24.9173C44.2555 20.312 42.4638 15.6923 39.0168 12.2423" fill="#D3C7AE"/>
</g>
</g>
</g>
</g>
</g>
</g>
</g>
</g>
</g>
<defs>
<clipPath id="clip0_2_347">
<rect width="43.9394" height="50" fill="white" transform="translate(0.64032 0.549805)"/>
</clipPath>
</defs>
</svg>
