<svg width="17" height="26" viewBox="0 0 17 26" fill="none" xmlns="http://www.w3.org/2000/svg">
<g id="icon-search.svg" clip-path="url(#clip0_2_28)">
<g id="Group">
<g id="Group_2">
<g id="Group_3">
<g id="Group_4">
<g id="Group_5">
<g id="Group_6">
<path id="Vector" fill-rule="evenodd" clip-rule="evenodd" d="M16.4557 21.4014C16.3743 21.5578 16.2129 21.6364 15.97 21.6364C15.8079 21.6364 15.565 21.5578 15.4029 21.4014L11.785 17.8928C10.6593 18.7093 9.28 19.2028 7.79286 19.2028C4.06929 19.2028 0.992859 16.22 0.992859 12.61C0.992859 8.99856 3.98786 5.93713 7.79286 5.93713C11.5171 5.93713 14.5936 8.91928 14.5936 12.5307C14.5936 14.1893 13.9393 15.7271 12.8764 16.9107L16.4557 20.3807C16.7793 20.695 16.7793 21.0871 16.4557 21.4014ZM7.79286 7.34999C4.87857 7.34999 2.45 9.62642 2.45 12.5307C2.45 15.435 4.87857 17.7107 7.79286 17.7107C9.095 17.7107 10.285 17.2236 11.22 16.4514C11.2407 16.4278 11.25 16.4014 11.2743 16.3778C11.3564 16.2978 11.4436 16.2393 11.5336 16.2C12.5179 15.2564 13.1364 13.9543 13.1364 12.5307C13.1364 9.70428 10.7079 7.34999 7.79286 7.34999Z" fill="#232323"/>
</g>
</g>
</g>
</g>
</g>
</g>
</g>
<defs>
<clipPath id="clip0_2_28">
<rect width="16.4286" height="25" fill="white" transform="translate(0.285706 0.220001)"/>
</clipPath>
</defs>
</svg>
