<svg width="30" height="30" viewBox="0 0 30 30" fill="none" xmlns="http://www.w3.org/2000/svg">
<g id="Icon" clip-path="url(#clip0_2_410)">
<path id="Vector" d="M8.88281 10.1787C8.58073 10.1787 8.30225 10.174 8.04736 10.1646C7.79248 10.1551 7.26855 10.1504 6.47559 10.1504C5.68262 10.1504 5.15869 10.1551 4.90381 10.1646C4.64893 10.174 4.37044 10.1787 4.06836 10.1787C3.25651 10.2165 2.65234 10.4336 2.25586 10.8301C1.85938 11.2266 1.64225 11.8307 1.60449 12.6426C1.60449 12.9447 1.59977 13.2231 1.59033 13.478C1.58089 13.7329 1.57617 14.2568 1.57617 15.0498C1.57617 15.8428 1.58089 16.3667 1.59033 16.6216C1.59977 16.8765 1.60449 17.1549 1.60449 17.457C1.64225 18.2689 1.85938 18.873 2.25586 19.2695C2.65234 19.666 3.25651 19.8831 4.06836 19.9209C4.37044 19.9209 4.64893 19.9256 4.90381 19.9351C5.15869 19.9445 5.68262 19.9492 6.47559 19.9492C7.26855 19.9492 7.79248 19.9445 8.04736 19.9351C8.30225 19.9256 8.58073 19.9209 8.88281 19.9209C9.69466 19.8831 10.2988 19.666 10.6953 19.2695C11.0918 18.873 11.3089 18.2689 11.3467 17.457C11.3467 17.1549 11.3514 16.8765 11.3608 16.6216C11.3703 16.3667 11.375 15.8428 11.375 15.0498C11.375 14.2568 11.3703 13.7329 11.3608 13.478C11.3514 13.2231 11.3467 12.9447 11.3467 12.6426C11.3089 11.8307 11.0918 11.2266 10.6953 10.8301C10.2988 10.4336 9.69466 10.2165 8.88281 10.1787ZM9.67578 12.5859C9.4681 12.5859 9.29346 12.5151 9.15186 12.3735C9.01025 12.2319 8.93945 12.0573 8.93945 11.8496C8.93945 11.6608 9.01025 11.4956 9.15186 11.354C9.29346 11.2124 9.4681 11.1416 9.67578 11.1416C9.86458 11.1416 10.0298 11.2124 10.1714 11.354C10.313 11.4956 10.3838 11.6608 10.3838 11.8496C10.3838 12.0573 10.313 12.2319 10.1714 12.3735C10.0298 12.5151 9.86458 12.5859 9.67578 12.5859ZM12.4229 17.5137C12.3662 18.5898 12.0405 19.4253 11.4458 20.02C10.8511 20.6147 10.0156 20.9404 8.93945 20.9971C8.61849 20.9971 8.33057 21.0018 8.07568 21.0112C7.8208 21.0207 7.28744 21.0254 6.47559 21.0254C5.66374 21.0254 5.13037 21.0207 4.87549 21.0112C4.62061 21.0018 4.33268 20.9971 4.01172 20.9971C2.93555 20.9404 2.1001 20.6147 1.50537 20.02C0.910645 19.4253 0.584961 18.5898 0.52832 17.5137C0.52832 17.1927 0.5236 16.9048 0.51416 16.6499C0.50472 16.395 0.5 15.8617 0.5 15.0498C0.5 14.238 0.50472 13.7046 0.51416 13.4497C0.5236 13.1948 0.52832 12.9069 0.52832 12.5859C0.584961 11.5098 0.910645 10.6743 1.50537 10.0796C2.1001 9.48486 2.93555 9.15918 4.01172 9.10254C4.33268 9.10254 4.62061 9.09782 4.87549 9.08838C5.13037 9.07894 5.66374 9.07422 6.47559 9.07422C7.28744 9.07422 7.8208 9.07894 8.07568 9.08838C8.33057 9.09782 8.61849 9.10254 8.93945 9.10254C10.0156 9.15918 10.8511 9.48486 11.4458 10.0796C12.0405 10.6743 12.3662 11.5098 12.4229 12.5859C12.4229 12.9069 12.4276 13.1948 12.437 13.4497C12.4465 13.7046 12.4512 14.238 12.4512 15.0498C12.4512 15.8617 12.4465 16.395 12.437 16.6499C12.4276 16.9048 12.4229 17.1927 12.4229 17.5137ZM6.47559 11.9912C7.3252 11.9912 8.04736 12.2886 8.64209 12.8833C9.23682 13.478 9.53418 14.2002 9.53418 15.0498C9.53418 15.8994 9.23682 16.6216 8.64209 17.2163C8.04736 17.811 7.3252 18.1084 6.47559 18.1084C5.62598 18.1084 4.90381 17.811 4.30908 17.2163C3.71436 16.6216 3.41699 15.8994 3.41699 15.0498C3.41699 14.2002 3.71436 13.478 4.30908 12.8833C4.90381 12.2886 5.62598 11.9912 6.47559 11.9912ZM6.47559 13.0674C5.92806 13.0674 5.46077 13.2609 5.07373 13.6479C4.68669 14.035 4.49316 14.5023 4.49316 15.0498C4.49316 15.5973 4.68669 16.0646 5.07373 16.4517C5.46077 16.8387 5.92806 17.0322 6.47559 17.0322C7.02311 17.0322 7.4904 16.8387 7.87744 16.4517C8.26449 16.0646 8.45801 15.5973 8.45801 15.0498C8.45801 14.5023 8.26449 14.035 7.87744 13.6479C7.4904 13.2609 7.02311 13.0674 6.47559 13.0674Z" fill="white"/>
</g>
<defs>
<clipPath id="clip0_2_410">
<rect width="29" height="29" fill="white" transform="matrix(1 0 0 -1 0.5 29.5498)"/>
</clipPath>
</defs>
</svg>
