<svg width="50" height="51" viewBox="0 0 50 51" fill="none" xmlns="http://www.w3.org/2000/svg">
<g id="insta-ico.svg" clip-path="url(#clip0_2_396)">
<g id="Group">
<g id="Group_2">
<g id="Group_3">
<g id="Group_4">
<g id="Group_5">
<path id="Vector" d="M35.104 5.1998C32.468 5.0788 31.675 5.0568 25 5.0568C18.325 5.0568 17.536 5.0818 14.9 5.1998C8.118 5.5098 4.96 8.7208 4.65 15.4498C4.532 18.0858 4.504 18.8748 4.504 25.5498C4.504 32.2248 4.532 33.0138 4.65 35.6538C4.96 42.3638 8.104 45.5928 14.9 45.9038C17.532 46.0208 18.325 46.0498 25 46.0498C31.679 46.0498 32.468 46.0248 35.104 45.9038C41.886 45.5958 45.039 42.3748 45.354 35.6538C45.471 33.0178 45.496 32.2248 45.496 25.5498C45.496 18.8748 45.471 18.0858 45.354 15.4498C45.039 8.7248 41.879 5.5098 35.104 5.1998ZM38.346 15.2068C36.689 15.2068 35.346 13.8638 35.346 12.2068C35.346 10.5498 36.689 9.2068 38.346 9.2068C40.004 9.2068 41.346 10.5498 41.346 12.2068C41.346 13.8608 40.004 15.2068 38.346 15.2068ZM49.85 35.8568C49.44 44.9468 44.379 49.9818 35.31 50.3998C32.643 50.5208 31.79 50.5498 25 50.5498C18.21 50.5498 17.36 50.5208 14.693 50.3998C5.607 49.9818 0.568 44.9398 0.15 35.8568C0.029 33.1928 0 32.3398 0 25.5498C0 18.7598 0.029 17.9098 0.15 15.2428C0.568 6.1568 5.61 1.1178 14.693 0.702805C17.36 0.579805 18.21 0.549805 25 0.549805C31.79 0.549805 32.643 0.578805 35.31 0.703805C44.4 1.1198 49.444 6.1748 49.85 15.2428C49.971 17.9098 50 18.7598 50 25.5498C50 32.3398 49.971 33.1928 49.85 35.8568Z" fill="#414141"/>
<path id="Vector_2" d="M25 12.7139C32.09 12.7139 37.84 18.4609 37.84 25.5499C37.84 32.6399 32.09 38.3899 25 38.3899C17.91 38.3899 12.16 32.6419 12.16 25.5499C12.16 18.4599 17.91 12.7139 25 12.7139ZM25 17.2179C20.4 17.2179 16.668 20.9459 16.668 25.5499C16.668 30.1539 20.4 33.8819 25 33.8819C29.6 33.8819 33.332 30.1539 33.332 25.5499C33.332 20.9459 29.6 17.2179 25 17.2179Z" fill="#414141"/>
</g>
</g>
</g>
</g>
</g>
</g>
<defs>
<clipPath id="clip0_2_396">
<rect width="50" height="50" fill="white" transform="translate(0 0.549805)"/>
</clipPath>
</defs>
</svg>
