<svg width="32" height="33" viewBox="0 0 32 33" fill="none" xmlns="http://www.w3.org/2000/svg">
<g id="Icon">
<path id="Vector" d="M9.25 10.7651C8.91667 10.7651 8.60938 10.7599 8.32812 10.7495C8.04688 10.7391 7.46875 10.7339 6.59375 10.7339C5.71875 10.7339 5.14062 10.7391 4.85938 10.7495C4.57812 10.7599 4.27083 10.7651 3.9375 10.7651C3.04167 10.8068 2.375 11.0464 1.9375 11.4839C1.5 11.9214 1.26042 12.5881 1.21875 13.4839C1.21875 13.8172 1.21354 14.1245 1.20312 14.4058C1.19271 14.687 1.1875 15.2651 1.1875 16.1401C1.1875 17.0151 1.19271 17.5933 1.20312 17.8745C1.21354 18.1558 1.21875 18.4631 1.21875 18.7964C1.26042 19.6922 1.5 20.3589 1.9375 20.7964C2.375 21.2339 3.04167 21.4735 3.9375 21.5151C4.27083 21.5151 4.57812 21.5203 4.85938 21.5308C5.14062 21.5412 5.71875 21.5464 6.59375 21.5464C7.46875 21.5464 8.04688 21.5412 8.32812 21.5308C8.60938 21.5203 8.91667 21.5151 9.25 21.5151C10.1458 21.4735 10.8125 21.2339 11.25 20.7964C11.6875 20.3589 11.9271 19.6922 11.9688 18.7964C11.9688 18.4631 11.974 18.1558 11.9844 17.8745C11.9948 17.5933 12 17.0151 12 16.1401C12 15.2651 11.9948 14.687 11.9844 14.4058C11.974 14.1245 11.9688 13.8172 11.9688 13.4839C11.9271 12.5881 11.6875 11.9214 11.25 11.4839C10.8125 11.0464 10.1458 10.8068 9.25 10.7651ZM10.125 13.4214C9.89583 13.4214 9.70312 13.3433 9.54688 13.187C9.39062 13.0308 9.3125 12.8381 9.3125 12.6089C9.3125 12.4006 9.39062 12.2183 9.54688 12.062C9.70312 11.9058 9.89583 11.8276 10.125 11.8276C10.3333 11.8276 10.5156 11.9058 10.6719 12.062C10.8281 12.2183 10.9062 12.4006 10.9062 12.6089C10.9062 12.8381 10.8281 13.0308 10.6719 13.187C10.5156 13.3433 10.3333 13.4214 10.125 13.4214ZM13.1562 18.8589C13.0938 20.0464 12.7344 20.9683 12.0781 21.6245C11.4219 22.2808 10.5 22.6401 9.3125 22.7026C8.95833 22.7026 8.64062 22.7078 8.35938 22.7183C8.07812 22.7287 7.48958 22.7339 6.59375 22.7339C5.69792 22.7339 5.10938 22.7287 4.82812 22.7183C4.54688 22.7078 4.22917 22.7026 3.875 22.7026C2.6875 22.6401 1.76562 22.2808 1.10938 21.6245C0.453125 20.9683 0.09375 20.0464 0.03125 18.8589C0.03125 18.5047 0.0260417 18.187 0.015625 17.9058C0.00520833 17.6245 0 17.036 0 16.1401C0 15.2443 0.00520833 14.6558 0.015625 14.3745C0.0260417 14.0933 0.03125 13.7756 0.03125 13.4214C0.09375 12.2339 0.453125 11.312 1.10938 10.6558C1.76562 9.99951 2.6875 9.64014 3.875 9.57764C4.22917 9.57764 4.54688 9.57243 4.82812 9.56201C5.10938 9.55159 5.69792 9.54639 6.59375 9.54639C7.48958 9.54639 8.07812 9.55159 8.35938 9.56201C8.64062 9.57243 8.95833 9.57764 9.3125 9.57764C10.5 9.64014 11.4219 9.99951 12.0781 10.6558C12.7344 11.312 13.0938 12.2339 13.1562 13.4214C13.1562 13.7756 13.1615 14.0933 13.1719 14.3745C13.1823 14.6558 13.1875 15.2443 13.1875 16.1401C13.1875 17.036 13.1823 17.6245 13.1719 17.9058C13.1615 18.187 13.1562 18.5047 13.1562 18.8589ZM6.59375 12.7651C7.53125 12.7651 8.32812 13.0933 8.98438 13.7495C9.64062 14.4058 9.96875 15.2026 9.96875 16.1401C9.96875 17.0776 9.64062 17.8745 8.98438 18.5308C8.32812 19.187 7.53125 19.5151 6.59375 19.5151C5.65625 19.5151 4.85938 19.187 4.20312 18.5308C3.54688 17.8745 3.21875 17.0776 3.21875 16.1401C3.21875 15.2026 3.54688 14.4058 4.20312 13.7495C4.85938 13.0933 5.65625 12.7651 6.59375 12.7651ZM6.59375 13.9526C5.98958 13.9526 5.47396 14.1662 5.04688 14.5933C4.61979 15.0203 4.40625 15.536 4.40625 16.1401C4.40625 16.7443 4.61979 17.2599 5.04688 17.687C5.47396 18.1141 5.98958 18.3276 6.59375 18.3276C7.19792 18.3276 7.71354 18.1141 8.14062 17.687C8.56771 17.2599 8.78125 16.7443 8.78125 16.1401C8.78125 15.536 8.56771 15.0203 8.14062 14.5933C7.71354 14.1662 7.19792 13.9526 6.59375 13.9526Z" fill="#3B3B3B"/>
</g>
</svg>
