<svg width="80" height="22" viewBox="0 0 80 22" fill="none" xmlns="http://www.w3.org/2000/svg">
<g id="maximum.svg" clip-path="url(#clip0_2_385)">
<g id="Group">
<g id="Group_2">
<g id="Group_3">
<path id="Vector" d="M36.6878 5.10137H39.4255L38.1033 14.1602L37.8054 16.1964H36.2063L37.6226 18.3041L34.8304 20.52L34.818 20.499L31.1834 14.1617L34.8242 14.1594L35.2776 14.8337L35.3756 14.1594L36.6878 5.10137ZM28.5188 14.1586L26.1014 17.1445L25.1385 14.7925L25.1712 14.7474L25.2645 14.6198L25.6005 14.1586H28.5188ZM62.9494 14.1586C62.7309 14.6657 62.4236 15.1526 62.0083 15.4839C61.1403 16.1746 60.2054 16.5277 57.9421 16.5277C55.6788 16.5277 54.7968 15.172 54.6614 14.2908L54.6428 14.1617L57.5952 14.1586C57.6745 14.3375 57.7912 14.4822 57.9553 14.5615C58.457 14.8057 59.2698 14.7653 59.6089 14.4674C59.717 14.3725 59.822 14.2768 59.9208 14.1617L62.9494 14.1586ZM24.6641 5.67071C25.613 6.37537 25.613 7.59571 25.5041 8.36804C25.4185 8.98559 24.8725 12.6925 24.6563 14.1578L21.4698 14.1594C21.8555 13.9875 22.1021 13.8172 22.1021 13.8172L22.5765 10.6998C22.5765 10.6998 22.2514 10.72 21.8983 10.7465L21.6844 10.7636L21.4791 10.7807C21.0179 10.8212 20.3124 10.8896 19.4048 11.2287C18.4963 11.567 18.1448 12.2717 18.1448 13.0036C18.1448 13.4158 18.2848 13.8584 18.669 14.1602H18.6713C18.9186 14.3546 19.2671 14.4899 19.7439 14.5218C20.3956 14.5654 21.0249 14.3608 21.4698 14.1617L24.6571 14.1594L24.5692 14.7528L23.8373 15.3222C22.9289 15.9864 21.6821 16.3519 20.1771 16.4873C18.6729 16.6226 16.7346 16.2298 16.0028 14.5763C15.9421 14.4402 15.89 14.3017 15.8456 14.1609C15.3525 12.5859 15.8713 10.7372 17.738 9.79137C19.5035 8.89693 22.0461 8.81993 22.6846 8.81526H22.834C22.834 8.81526 23.065 7.8936 22.5633 7.44637C22.0041 6.9486 21.4246 7.10726 20.1639 7.31104C18.9039 7.51404 17.4938 8.1176 17.4938 8.1176L17.8189 5.81926C17.8189 5.81926 18.6729 5.20948 20.8149 4.88437C22.9561 4.55926 23.716 4.96526 24.6649 5.66993L24.6641 5.67071ZM12.4374 4.75526C13.5356 4.75526 14.5592 5.10682 15.0064 5.54782C15.4536 5.98882 15.6022 6.25326 15.7718 7.01782C15.7718 7.01782 15.8604 7.57393 15.7445 8.37426C15.6706 8.89226 15.2149 12.0189 14.903 14.157L12.0081 14.1586L12.1831 12.9624L12.2438 12.547C12.4965 10.8126 12.7493 9.07037 12.7765 8.87593C12.831 8.47615 12.9461 7.64237 12.6676 7.27604C12.39 6.91048 11.8891 6.8156 11.5088 6.84204C11.1292 6.86926 10.3429 6.98437 10.1329 8.23893C9.99831 9.0416 9.54409 12.078 9.23454 14.1578L6.35131 14.1586C6.66787 12.0034 7.12676 8.87204 7.15787 8.62471C7.20531 8.24515 7.27298 7.35071 6.76509 7.0256C6.25642 6.70048 5.34176 6.77515 4.96842 7.29004C4.59587 7.80493 4.5142 8.05537 4.38509 8.84171C4.3042 9.34026 3.89198 12.1636 3.60187 14.1617L3.30942 16.1886H0.414536L0.71398 14.1617L2.15754 14.1602L0.71398 14.1586C0.791758 13.6266 0.880424 13.0332 0.969091 12.4327L1.0352 11.9816L1.57965 8.2996C1.67454 7.66182 2.1902 6.49671 2.99598 5.85271C3.80254 5.20948 4.83387 4.76304 6.08065 4.76304C7.32743 4.76304 8.05931 5.06793 8.47931 5.29893C8.89931 5.52915 9.17154 5.82004 9.17154 5.82004C9.17154 5.82004 9.51609 5.48171 10.1943 5.20404C10.8718 4.9256 11.3392 4.75682 12.4374 4.75682V4.75526ZM9.23454 14.1578L8.93354 16.1886H6.05265L6.35131 14.1586L9.23454 14.1578ZM14.903 14.1586L14.6066 16.1886H11.7125L12.0081 14.1602L14.903 14.1586ZM50.8799 4.75526C51.9773 4.75526 53.0009 5.10682 53.4481 5.54782C53.8953 5.98882 54.0446 6.25326 54.2142 7.01782L54.222 7.07537C54.2399 7.2356 54.2803 7.72404 54.187 8.37426L53.6301 12.1986L53.5648 12.6497L53.3446 14.157L50.4505 14.1586L50.6248 12.9624L50.6854 12.547C50.9382 10.8126 51.1918 9.07037 51.2182 8.87593C51.2726 8.47615 51.3878 7.64237 51.1101 7.27604C50.8324 6.91048 50.3308 6.8156 49.9512 6.84204C49.5716 6.86926 48.7845 6.98437 48.5753 8.23893C48.4921 8.73671 48.2852 10.0955 48.0659 11.5523L47.9928 12.0399L47.677 14.157L44.7938 14.1586C45.1103 12.0034 45.5692 8.87204 45.5995 8.62471C45.647 8.24515 45.7154 7.35071 45.2068 7.0256C44.6989 6.70048 43.7834 6.77515 43.4109 7.29004C43.0375 7.80493 42.9566 8.05537 42.8275 8.84171C42.7467 9.34026 42.3344 12.1636 42.0443 14.1617L41.7503 16.1886H38.857L39.1556 14.1617L40.6 14.1602L39.1556 14.1586L39.4108 12.4327L39.4776 11.9816L40.0221 8.2996C40.117 7.66182 40.6319 6.49671 41.4384 5.85271C42.245 5.20871 43.2748 4.76148 44.5223 4.76148C45.7691 4.76148 46.5018 5.06637 46.9218 5.29737C47.2368 5.47004 47.4678 5.67693 47.5642 5.76948L47.607 5.81304L47.6132 5.81848C47.6132 5.81848 47.9585 5.48015 48.636 5.20248C49.3142 4.92404 49.7816 4.75526 50.8799 4.75526ZM47.677 14.1586L47.376 16.1886H44.4951L44.7938 14.1586H47.677ZM53.3446 14.1586L53.0491 16.1886H50.1542L50.4505 14.1602L53.3446 14.1586ZM75.9298 4.75526C77.0272 4.75526 78.0508 5.10682 78.498 5.54782C78.9452 5.98882 79.0945 6.25326 79.2633 7.01782C79.2633 7.01782 79.352 7.57393 79.2369 8.37426C79.1622 8.89226 78.7064 12.0189 78.3945 14.157L75.5004 14.1586L75.6747 12.9624L75.7353 12.547C75.9881 10.8126 76.2416 9.07037 76.2681 8.87593C76.3225 8.47615 76.4376 7.64237 76.16 7.27604C75.8815 6.91048 75.3806 6.8156 75.0011 6.84204C74.6208 6.86926 73.8352 6.98437 73.6244 8.23893C73.5412 8.73671 73.3351 10.0955 73.1158 11.5523L73.0426 12.0399L72.7261 14.157L69.8429 14.1586C70.1594 12.0034 70.6191 8.87204 70.6494 8.62471C70.6969 8.24515 70.7645 7.35071 70.2566 7.0256C69.748 6.70048 68.8333 6.77515 68.46 7.29004C68.0874 7.80493 68.0058 8.05537 67.8774 8.84171C67.7958 9.34026 67.3843 12.1636 67.0934 14.1617L66.8002 16.1886H63.9061L64.2055 14.1617L65.6499 14.1602L64.2055 14.1586L65.0712 8.2996C65.1669 7.66182 65.6818 6.49671 66.4883 5.85271C67.2949 5.20871 68.3246 4.76148 69.5722 4.76148C70.819 4.76148 71.5509 5.06637 71.9709 5.29737C72.3909 5.5276 72.6631 5.81848 72.6631 5.81848C72.6631 5.81848 73.0084 5.48015 73.6859 5.20248C74.3633 4.92404 74.8315 4.75526 75.9298 4.75526ZM72.7261 14.1586L72.4251 16.1886H69.545L69.8429 14.1586H72.7261ZM78.3945 14.1586L78.0982 16.1886H75.2041L75.4996 14.1602L78.3945 14.1586ZM64.4482 5.10137C64.4482 5.10137 64.2071 6.77515 63.9535 8.55082L63.8579 9.21893C63.6354 10.7729 63.4246 12.2546 63.3772 12.61C63.3204 13.0347 63.1874 13.6087 62.9494 14.1594H59.9208C60.1323 13.9136 60.3159 13.5698 60.4356 12.9227C60.5111 12.5159 60.739 11.021 60.9739 9.44604L61.075 8.76937C61.3542 6.89026 61.6148 5.10137 61.6148 5.10137H64.4482ZM58.6265 5.1146L58.1342 8.47071L58.0673 8.93115L57.4809 12.9227C57.4264 13.2875 57.4326 13.7923 57.5952 14.1594H54.6428C54.5354 13.3272 54.6303 12.512 54.8108 11.3773C55.0005 10.1842 55.7519 5.1146 55.7519 5.1146H58.6265ZM37.4943 0.465818C37.8396 0.722484 38.1383 1.25915 38.0769 1.81448C38.0154 2.36982 37.7113 2.85126 37.2229 3.46804L37.1863 3.51393L37.0836 3.64148C36.1908 4.74671 32.3291 9.4476 32.221 9.56815C32.1059 9.69648 32.0989 9.89948 32.1261 10.069C32.1533 10.2386 32.431 10.6049 32.5329 10.7535C32.6083 10.8632 34.0635 13.0285 34.8242 14.1594H31.1842C30.6709 13.2665 30.296 12.6139 30.2408 12.5198L30.2353 12.5089C30.1676 12.3938 30.0658 12.2313 29.8425 12.5167C29.757 12.6256 29.1876 13.3287 28.5188 14.157L25.6005 14.1594C26.5253 12.89 28.5226 10.1476 28.5748 10.069C28.6424 9.96793 28.6626 9.71671 28.5685 9.54015C28.4923 9.40015 27.167 7.13293 26.5875 6.13193L26.46 5.90948C26.3861 5.78193 26.3379 5.69637 26.3246 5.67071C26.2235 5.47393 26.0944 5.08737 26.2772 4.31504C26.46 3.54271 26.9414 3.31171 27.1584 3.27826C27.3754 3.24404 27.5862 3.32571 27.8359 3.71148C28.0871 4.09804 30.1404 7.17493 30.2283 7.31104C30.3162 7.44637 30.4585 7.48682 30.5744 7.32426C30.6895 7.16093 34.8646 1.40771 35.0676 1.13004C35.2706 0.851595 35.7855 0.296262 36.281 0.221595C36.7757 0.146929 37.1482 0.207595 37.4943 0.465818ZM31.2954 0.411373C32.1292 0.411373 32.606 1.35793 32.361 2.52615C32.1152 3.6936 31.241 4.64015 30.4064 4.64015C29.5734 4.64015 29.0959 3.6936 29.3409 2.52615C29.5866 1.35793 30.4609 0.411373 31.2946 0.411373H31.2954Z" fill="#D8127D"/>
</g>
</g>
</g>
</g>
<defs>
<clipPath id="clip0_2_385">
<rect width="79.3333" height="21" fill="white" transform="translate(0.40831 0.0498047)"/>
</clipPath>
</defs>
</svg>
