<svg width="124" height="43" viewBox="0 0 124 43" fill="none" xmlns="http://www.w3.org/2000/svg">
<g id="nehir-logo-w.svg" clip-path="url(#clip0_2_308)">
<g id="Group">
<g id="Group_2">
<g id="Group_3">
<g id="Group_4">
<g id="Group_5">
<path id="Vector" fill-rule="evenodd" clip-rule="evenodd" d="M93.56 12.9699H100.69V40.9699H93.56V12.9699ZM92.75 4.8699C92.723 3.7149 93.175 2.5999 94 1.7899C94.833 0.970902 95.962 0.523902 97.13 0.549902C98.258 0.533902 99.343 0.982902 100.13 1.7899C101.006 2.5739 101.505 3.6949 101.5 4.8699C101.522 6.0319 101.05 7.1479 100.2 7.9399C99.414 8.7499 98.329 9.2019 97.2 9.1899C96.047 9.2039 94.937 8.7539 94.12 7.9399C93.244 7.1599 92.746 6.0419 92.75 4.8699ZM105.82 12.9699H112.5V18.5499C112.903 16.8699 113.852 15.3709 115.2 14.2899C116.808 12.9219 118.86 12.1899 120.97 12.2299C121.637 12.2119 122.305 12.2319 122.97 12.2899L122.48 19.1399C122.335 19.1389 122.191 19.1219 122.05 19.0899H121.62C115.9 19.0899 113.04 21.1069 113.04 25.1399V40.9299H105.86L105.82 12.9699ZM26.5 23.7099V40.9299H19.39V24.1399C19.39 20.4729 17.34 18.6369 13.24 18.6299C11.634 18.5679 10.03 18.7709 8.49 19.2299V40.9299H1.36V18.1499C1.403 17.2269 1.35 16.3019 1.2 15.3899C0.992 14.9979 0.758 14.6199 0.5 14.2599C4.723 12.8259 9.161 12.1319 13.62 12.2099C17.62 12.2099 20.73 13.1429 22.95 15.0099C25.317 17.0299 26.5 19.9299 26.5 23.7099ZM59.23 27.5499V28.5799H37.42C37.634 30.0819 38.249 31.4979 39.2 32.6799C40.843 34.6999 43.35 35.8139 45.95 35.6799C47.918 35.7009 49.849 35.1409 51.5 34.0699C52.284 33.6019 52.965 32.9799 53.5 32.2399L57.98 36.1799C55.027 39.8469 50.797 41.6799 45.29 41.6799C41.286 41.7999 37.401 40.3119 34.5 37.5499C31.612 34.7589 30.042 30.8739 30.18 26.8599C30.048 22.9399 31.555 19.1419 34.34 16.3799C37.13 13.6149 40.933 12.1149 44.86 12.2299C49.427 12.2299 53.007 13.7399 55.6 16.7599C58.027 19.5199 59.237 23.1169 59.23 27.5499ZM52.43 23.5499C52.217 22.4179 51.674 21.3739 50.87 20.5499C49.386 18.9539 47.266 18.1029 45.09 18.2299C41.017 18.2299 38.497 20.0099 37.53 23.5699L52.43 23.5499ZM62.96 2.6499H70.14V15.3399C72.442 13.2229 75.485 12.0989 78.61 12.2099C82.25 12.2099 84.917 13.3269 86.61 15.5599C87.932 17.4139 88.597 19.6549 88.5 21.9299V40.9299H81.31V22.6299C81.31 19.8229 79.643 18.4199 76.31 18.4199C73.968 18.4069 71.724 19.3619 70.11 21.0599V40.9299H62.96V2.6499Z" fill="white"/>
</g>
</g>
</g>
</g>
</g>
</g>
<defs>
<clipPath id="clip0_2_308">
<rect width="123" height="42" fill="white" transform="translate(0.5 0.549805)"/>
</clipPath>
</defs>
</svg>
