<svg width="32" height="33" viewBox="0 0 32 33" fill="none" xmlns="http://www.w3.org/2000/svg">
<g id="Icon">
<path id="Vector" d="M14.125 11.8276C13.8542 11.9526 13.5833 12.0516 13.3125 12.1245C13.0417 12.1974 12.7604 12.2443 12.4688 12.2651C12.7604 12.0985 13.0156 11.8797 13.2344 11.6089C13.4531 11.3381 13.6146 11.036 13.7188 10.7026C13.4479 10.8693 13.1562 11.0099 12.8438 11.1245C12.5312 11.2391 12.2188 11.3276 11.9062 11.3901C11.6354 11.1193 11.3177 10.9006 10.9531 10.7339C10.5885 10.5672 10.1979 10.4839 9.78125 10.4839C8.84375 10.4839 8.08854 10.8485 7.51562 11.5776C6.94271 12.3068 6.76042 13.1089 6.96875 13.9839C5.76042 13.9214 4.64062 13.6245 3.60938 13.0933C2.57812 12.562 1.70833 11.8693 1 11.0151C0.604167 11.661 0.489583 12.3485 0.65625 13.0776C0.822917 13.8068 1.22917 14.3901 1.875 14.8276C1.64583 14.8068 1.42188 14.7703 1.20312 14.7183C0.984375 14.6662 0.770833 14.5776 0.5625 14.4526C0.5625 15.1193 0.776042 15.7235 1.20312 16.2651C1.63021 16.8068 2.19792 17.1506 2.90625 17.2964C2.69792 17.3589 2.48438 17.3953 2.26562 17.4058C2.04688 17.4162 1.82292 17.4006 1.59375 17.3589C1.78125 17.9214 2.11979 18.3849 2.60938 18.7495C3.09896 19.1141 3.65625 19.3068 4.28125 19.3276C3.67708 19.786 3.00521 20.1193 2.26562 20.3276C1.52604 20.536 0.770833 20.5985 0 20.5151C0.645833 20.911 1.34375 21.2235 2.09375 21.4526C2.84375 21.6818 3.625 21.7964 4.4375 21.7964C5.79167 21.7964 6.98958 21.536 8.03125 21.0151C9.07292 20.5151 9.94792 19.8589 10.6562 19.0464C11.3646 18.2339 11.8854 17.3276 12.2188 16.3276C12.5729 15.3068 12.7292 14.2964 12.6875 13.2964C12.9583 13.1089 13.2188 12.8901 13.4688 12.6401C13.7188 12.3901 13.9375 12.1193 14.125 11.8276Z" fill="#3B3B3B"/>
</g>
</svg>
